<svg width="29" height="29" viewBox="0 0 29 29" fill="none" xmlns="http://www.w3.org/2000/svg">
<path d="M23.6422 28.1712C22.4796 28.1712 21.5349 27.2255 21.5349 26.0638C21.5349 24.9021 22.4805 23.9565 23.6422 23.9565C24.8039 23.9565 25.7496 24.9021 25.7496 26.0638C25.7496 27.2255 24.8048 28.1712 23.6422 28.1712ZM23.6422 24.5994C22.835 24.5994 22.1778 25.2557 22.1778 26.0638C22.1778 26.8719 22.8341 27.5283 23.6422 27.5283C24.4503 27.5283 25.1066 26.8719 25.1066 26.0638C25.1066 25.2557 24.4494 24.5994 23.6422 24.5994ZM11.5875 28.1712C10.4257 28.1712 9.48012 27.2255 9.48012 26.0638C9.48012 24.9021 10.4257 23.9565 11.5875 23.9565C12.7492 23.9565 13.6948 24.9021 13.6948 26.0638C13.6948 27.2255 12.7492 28.1712 11.5875 28.1712ZM11.5875 24.5994C10.7802 24.5994 10.123 25.2557 10.123 26.0638C10.123 26.8719 10.7802 27.5283 11.5875 27.5283C12.3947 27.5283 13.0519 26.8719 13.0519 26.0638C13.0519 25.2557 12.3947 24.5994 11.5875 24.5994ZM26.321 22.8135H11.4258C9.5962 22.8135 8.62914 21.8232 8.08712 19.3962L3.74473 1.38285H1.3186V0.739929H3.99744C4.14567 0.739929 4.27514 0.840832 4.30997 0.985489L5.83422 7.25574L5.84583 7.25306L7.63351 14.6609C8.16034 16.737 9.01668 17.705 10.3284 17.705H24.1682C25.3835 17.705 26.0925 17.0004 26.3335 15.5512L27.7355 5.84757H8.46216V5.20465H28.1069C28.1998 5.20465 28.2891 5.24483 28.3498 5.31538C28.4105 5.38592 28.4382 5.47968 28.4248 5.57165L26.9675 15.6512C26.5961 17.8818 25.2388 18.3488 24.1664 18.3488H10.3275C9.51673 18.3488 8.83987 18.063 8.29161 17.4817L8.71486 19.2507C9.19616 21.4071 9.90516 22.1697 11.4267 22.1697H26.321V22.8135Z" fill="#8B8FBC"/>
</svg>
